<svg id="visual" viewBox="0 0 960 540" width="960" height="540" xmlns="http://www.w3.org/2000/svg" xmlns:xlink="http://www.w3.org/1999/xlink" version="1.1"><g fill="#20495c"><circle r="56" cx="375" cy="472"></circle><circle r="14" cx="806" cy="430"></circle><circle r="42" cx="631" cy="171"></circle><circle r="17" cx="253" cy="477"></circle><circle r="48" cx="885" cy="175"></circle><circle r="31" cx="368" cy="114"></circle><circle r="13" cx="661" cy="460"></circle><circle r="29" cx="129" cy="233"></circle><circle r="24" cx="589" cy="279"></circle><circle r="25" cx="722" cy="276"></circle><circle r="44" cx="500" cy="378"></circle><circle r="27" cx="239" cy="172"></circle><circle r="15" cx="887" cy="317"></circle><circle r="14" cx="169" cy="384"></circle><circle r="14" cx="413" cy="229"></circle><circle r="51" cx="552" cy="80"></circle><circle r="43" cx="285" cy="306"></circle><circle r="17" cx="112" cy="110"></circle><circle r="33" cx="57" cy="429"></circle><circle r="38" cx="717" cy="89"></circle><circle r="20" cx="872" cy="61"></circle><circle r="18" cx="264" cy="62"></circle></g></svg>